<?xml version="1.0" encoding="utf-8"?>
<!-- Generator: Adobe Illustrator 24.1.2, SVG Export Plug-In . SVG Version: 6.00 Build 0)  -->
<svg version="1.1" id="Layer_1" xmlns="http://www.w3.org/2000/svg" xmlns:xlink="http://www.w3.org/1999/xlink" x="0px" y="0px"
	 viewBox="0 0 116 117" style="enable-background:new 0 0 116 117;" xml:space="preserve">
<style type="text/css">
	.st0{fill:url(#SVGID_1_);}
	.st1{fill:url(#SVGID_2_);}
	.st2{fill:url(#SVGID_3_);}
</style>
<g>
	<g>
		<g>
			
				<linearGradient id="SVGID_1_" gradientUnits="userSpaceOnUse" x1="45.7252" y1="-162.2667" x2="54.2697" y2="-113.8085" gradientTransform="matrix(0.9993 -3.704611e-02 3.704611e-02 0.9993 15.958 230.2245)">
				<stop  offset="0" style="stop-color:#FF1D25"/>
				<stop  offset="1" style="stop-color:#D3662D"/>
			</linearGradient>
			<polygon class="st0" points="59.6,115.9 20.7,79.7 27.5,72.4 59.1,101.7 88.4,70.2 95.7,77 			"/>
		</g>
		<g>
			
				<linearGradient id="SVGID_2_" gradientUnits="userSpaceOnUse" x1="45.6246" y1="-186.3956" x2="54.1691" y2="-137.9374" gradientTransform="matrix(0.9993 -3.704611e-02 3.704611e-02 0.9993 15.958 230.2245)">
				<stop  offset="0" style="stop-color:#FF1D25"/>
				<stop  offset="1" style="stop-color:#D3662D"/>
			</linearGradient>
			<polygon class="st1" points="58.6,91.7 19.7,55.6 26.5,48.3 58.1,77.6 87.4,46.1 94.7,52.8 			"/>
		</g>
		<g>
			
				<linearGradient id="SVGID_3_" gradientUnits="userSpaceOnUse" x1="45.7726" y1="-189.7867" x2="50.1926" y2="-164.7197" gradientTransform="matrix(0.9993 -3.704611e-02 3.704611e-02 0.9993 15.958 230.2245)">
				<stop  offset="0" style="stop-color:#FF1D25"/>
				<stop  offset="1" style="stop-color:#D3662D"/>
			</linearGradient>
			<circle class="st2" cx="57.3" cy="51.3" r="12.7"/>
		</g>
	</g>
	<g>
		<path d="M0.6,30.6l1.5-1.8l4.3,2c1,0.4,1.9,0.9,2.9,1.4l0,0c-0.7-0.9-1.3-1.7-1.9-2.6l-2.8-3.8L6,24l5.7,8.4L10,34.5L0.6,30.6z"/>
		<path d="M9.3,20.6l4.6-4l1.2,1.4l-2.9,2.6l1.3,1.5l2.5-2.2l1.2,1.4l-2.5,2.2l1.5,1.7l3.1-2.7l1.2,1.4L15.8,28L9.3,20.6z"/>
		<path d="M18.6,13.2l3-1.8c1.8-1.1,3.6-1.3,4.8,0.7c0.7,1.2,0.6,2.4,0,3.3l3.9,2.2l-2.1,1.3l-3.4-2l-1,0.6l1.8,3l-1.9,1.1
			L18.6,13.2z M23.8,15.3c1-0.6,1.3-1.3,0.8-2.2c-0.5-0.8-1.2-0.8-2.2-0.2l-1,0.6l1.4,2.3L23.8,15.3z"/>
		<path d="M29.9,6.9l3.1-1.2C35,5,36.6,5,37.3,6.8c0.3,0.8,0.2,1.9-0.4,2.4l0,0.1c1-0.1,2,0.3,2.5,1.5c0.7,1.9-0.6,3.3-2.5,4
			l-3.4,1.3L29.9,6.9z M34.3,9.5c1-0.4,1.3-1,1-1.6c-0.3-0.7-0.8-0.8-1.8-0.4l-1,0.4l0.8,2.1L34.3,9.5z M36,13.3
			c1.1-0.4,1.5-1,1.2-1.9c-0.3-0.8-1-0.9-2.1-0.5L34,11.4l0.9,2.4L36,13.3z"/>
		<path d="M46.8,2l2.3-0.2l1.6,4.4c0.4,1,0.7,2,1.1,3l0.1,0c0.2-1.1,0.3-2.1,0.5-3.2l0.7-4.6l2.2-0.2l-2,10l-2.6,0.3L46.8,2z"/>
		<path d="M59.8,1.2L62,1.3l-0.4,9.8L59.4,11L59.8,1.2z"/>
		<path d="M66.3,6.6c0.6-3.2,3.1-4.6,5.5-4.2c1.2,0.2,2.1,1,2.7,1.8l-1.4,1.2c-0.4-0.5-0.9-1-1.6-1.1C70.2,4.1,68.9,5,68.6,7
			c-0.4,2,0.3,3.3,1.7,3.6c0.8,0.1,1.5-0.1,2-0.5l0.9,1.6c-1,0.8-2.1,1.1-3.4,0.8C67.5,11.9,65.7,9.9,66.3,6.6z"/>
		<path d="M80.7,7l-2.5-0.9l0.6-1.7L86,7l-0.6,1.7l-2.5-0.9l-2.8,7.4L78,14.4L80.7,7z"/>
		<path d="M87.5,13c1.6-2.7,4.1-3.4,6.4-2.1c2.3,1.3,2.9,3.8,1.3,6.6c-1.6,2.7-4.2,3.5-6.4,2.1C86.5,18.3,85.9,15.7,87.5,13z
			 M93.2,16.3c1-1.7,0.9-3.1-0.3-3.8s-2.5-0.1-3.5,1.6c-1,1.7-0.9,3.2,0.2,3.9C90.8,18.7,92.2,18,93.2,16.3z"/>
		<path d="M102.1,16.8l2.6,2.3c1.5,1.4,2.3,3,0.8,4.8c-1,1.1-2.1,1.3-3.2,0.9l-1,4.4l-1.8-1.6l0.9-3.9l-0.9-0.8l-2.3,2.6l-1.6-1.5
			L102.1,16.8z M101.6,22.3c0.9,0.8,1.7,0.8,2.3,0.1c0.6-0.7,0.4-1.4-0.5-2.2l-0.8-0.8l-1.8,2L101.6,22.3z"/>
		<path d="M107.3,30.8l3.1-6.2l1.5,1.9l-1.2,2.1c-0.4,0.7-0.8,1.3-1.2,2l0,0c0.8-0.2,1.5-0.5,2.2-0.7l2.3-0.7l1.4,1.8l-6.8,1.6
			l-2.7,2.2l-1.4-1.7L107.3,30.8z"/>
	</g>
</g>
</svg>
