<?xml version="1.0" encoding="utf-8"?>
<!-- Generator: Adobe Illustrator 24.1.2, SVG Export Plug-In . SVG Version: 6.00 Build 0)  -->
<svg version="1.1" id="Layer_1" xmlns="http://www.w3.org/2000/svg" xmlns:xlink="http://www.w3.org/1999/xlink" x="0px" y="0px"
	 viewBox="0 0 131.8 124" style="enable-background:new 0 0 131.8 124;" xml:space="preserve">
<style type="text/css">
	.st0{fill:#FF2300;}
	.st1{stroke:#000000;stroke-width:0.5;stroke-miterlimit:10;}
</style>
<g>
	<g>
		<polygon class="st0" points="67.5,93.2 24.2,53 32.3,44.2 66.8,76.2 98.9,41.7 107.7,49.9 		"/>
	</g>
</g>
<g>
	<circle class="st0" cx="65.9" cy="48.3" r="12.7"/>
</g>
<g>
	<g>
		<polygon class="st0" points="67.5,122.5 24.2,82.4 32.3,73.6 66.8,105.6 98.9,71.1 107.7,79.2 		"/>
	</g>
</g>
<g>
	<path class="st1" d="M4.7,33.5l1.6-1.9l4.6,2.1c1.1,0.4,2,1,3.1,1.5l0,0c-0.7-1-1.4-1.8-2-2.8l-3-4.1l1.5-1.9l6.1,9l-1.8,2.2
		L4.7,33.5z"/>
	<path class="st1" d="M14,22.9l4.9-4.3l1.3,1.5l-3.1,2.8l1.4,1.6l2.7-2.3l1.3,1.5L19.7,26l1.6,1.8l3.3-2.9l1.3,1.5l-5,4.4L14,22.9z"
		/>
	<path class="st1" d="M23.9,15l3.2-1.9c1.9-1.2,3.8-1.4,5.1,0.7c0.7,1.3,0.6,2.6,0,3.5l4.2,2.3l-2.2,1.4l-3.6-2.1l-1.1,0.6l1.9,3.2
		l-2,1.2L23.9,15z M29.4,17.2c1.1-0.6,1.4-1.4,0.9-2.3C29.8,14,29,14,27.9,14.7l-1.1,0.6l1.5,2.5L29.4,17.2z"/>
	<path class="st1" d="M35.9,8.3L39.2,7c2.1-0.7,3.8-0.7,4.6,1.2c0.3,0.9,0.2,2-0.4,2.6v0.1c1.1-0.1,2.1,0.3,2.7,1.6
		c0.7,2-0.6,3.5-2.7,4.3l-3.6,1.4L35.9,8.3z M40.6,11c1.1-0.4,1.4-1.1,1.1-1.7c-0.3-0.7-0.9-0.9-1.9-0.4l-1.1,0.4l0.9,2.2L40.6,11z
		 M42.4,15.1c1.2-0.4,1.6-1.1,1.3-2c-0.3-0.9-1.1-1-2.2-0.5l-1.2,0.5l1,2.6L42.4,15.1z"/>
	<path class="st1" d="M54,3l2.5-0.2l1.7,4.7c0.4,1.1,0.7,2.1,1.2,3.2h0.1c0.2-1.2,0.3-2.2,0.5-3.4l0.7-4.9L63,2.2l-2.1,10.7
		l-2.8,0.3L54,3z"/>
	<path class="st1" d="M67.8,2.2l2.3,0.1l-0.4,10.5l-2.3-0.1L67.8,2.2z"/>
	<path class="st1" d="M74.8,7.9c0.6-3.4,3.3-4.9,5.9-4.5c1.3,0.2,2.2,1.1,2.9,1.9L82,6.7c-0.4-0.5-1-1.1-1.7-1.2
		c-1.4-0.2-2.8,0.7-3.1,2.9c-0.4,2.1,0.3,3.5,1.8,3.8c0.9,0.1,1.6-0.1,2.1-0.5l1,1.7c-1.1,0.9-2.2,1.2-3.6,0.9
		C76.1,13.6,74.1,11.5,74.8,7.9z"/>
	<path class="st1" d="M90.1,8.4l-2.7-1l0.6-1.8l7.7,2.8l-0.6,1.8l-2.7-1l-3,7.9l-2.2-0.9L90.1,8.4z"/>
	<path class="st1" d="M97.4,14.8c1.7-2.9,4.4-3.6,6.8-2.2c2.5,1.4,3.1,4.1,1.4,7c-1.7,2.9-4.5,3.7-6.8,2.2
		C96.3,20.4,95.7,17.6,97.4,14.8z M103.5,18.3c1.1-1.8,1-3.3-0.3-4.1c-1.3-0.7-2.7-0.1-3.7,1.7s-1,3.4,0.2,4.2
		C100.9,20.8,102.4,20.1,103.5,18.3z"/>
	<path class="st1" d="M113,18.8l2.8,2.5c1.6,1.5,2.5,3.2,0.9,5.1c-1.1,1.2-2.2,1.4-3.4,1l-1.1,4.7l-1.9-1.7l1-4.2l-1-0.9l-2.5,2.8
		l-1.7-1.6L113,18.8z M112.4,24.7c1,0.9,1.8,0.9,2.5,0.1c0.6-0.7,0.4-1.5-0.5-2.3l-0.9-0.9l-1.9,2.1L112.4,24.7z"/>
	<path class="st1" d="M118.5,33.8l3.3-6.6l1.6,2l-1.3,2.2c-0.4,0.7-0.9,1.4-1.3,2.1l0,0c0.9-0.2,1.6-0.5,2.3-0.7l2.5-0.7l1.5,1.9
		l-7.3,1.7L117,38l-1.5-1.8L118.5,33.8z"/>
</g>
</svg>
